if (_typeface_js && _typeface_js.loadFace) _typeface_js.loadFace({"glyphs":{"S":{"x_min":0,"x_max":610.40625,"ha":678,"o":"m 0 271 q 271 0 0 0 l 339 0 q 610 271 610 0 l 610 305 q 339 576 610 576 l 271 576 q 203 644 203 576 l 203 678 q 271 746 203 746 l 339 746 q 406 678 406 746 l 406 644 l 610 644 l 610 678 q 339 949 610 949 l 271 949 q 0 678 0 949 l 0 644 q 271 373 0 373 l 339 373 q 406 305 406 373 l 406 271 q 339 203 406 203 l 271 203 q 203 271 203 203 l 203 305 l 0 305 l 0 271 "},"\u0000":{"x_min":0,"x_max":0,"ha":0},"/":{"x_min":-225.84375,"x_max":429.3125,"ha":271,"o":"m -225 -127 l 238 1146 l 429 1077 l -34 -197 l -225 -127 "},"K":{"x_min":0,"x_max":644.984375,"ha":678,"o":"m 203 373 l 203 0 l 0 0 l 0 949 l 203 949 l 203 576 l 240 576 l 305 710 l 419 949 l 644 949 l 418 474 l 644 0 l 419 0 l 305 238 l 240 373 l 203 373 "},"7":{"x_min":0,"x_max":610.40625,"ha":678,"o":"m 0 746 l 406 746 l 406 644 q 339 576 406 576 l 271 576 q 0 305 0 576 l 0 0 l 203 0 l 203 305 q 271 373 203 373 l 339 373 q 610 644 610 373 l 610 949 l 0 949 l 0 746 "},"d":{"x_min":0,"x_max":610.40625,"ha":678,"o":"m 0 0 l 0 949 l 339 949 q 610 678 610 949 l 610 271 q 339 0 610 0 l 0 0 m 339 203 q 406 271 406 203 l 406 678 q 339 746 406 746 l 203 746 l 203 203 l 339 203 "},",":{"x_min":0,"x_max":203.46875,"ha":271,"o":"m 169 -169 l 33 -169 l 0 0 l 0 203 l 203 203 l 203 0 l 169 -169 "},"Y":{"x_min":-34.59375,"x_max":644.984375,"ha":678,"o":"m 203 455 l -34 949 l 191 949 l 305 710 l 419 949 l 644 949 l 406 453 l 406 0 l 203 0 l 203 455 "},"E":{"x_min":0,"x_max":610.40625,"ha":678,"o":"m 0 949 l 0 0 l 610 0 l 610 203 l 203 203 l 203 373 l 542 373 l 542 576 l 203 576 l 203 746 l 610 746 l 610 949 l 0 949 "},"y":{"x_min":-34.59375,"x_max":644.984375,"ha":678,"o":"m 203 455 l -34 949 l 191 949 l 305 710 l 419 949 l 644 949 l 406 453 l 406 0 l 203 0 l 203 455 "},"\"":{"x_min":0,"x_max":474.75,"ha":543,"o":"m 169 576 l 33 576 l 0 746 l 0 949 l 203 949 l 203 746 l 169 576 m 440 576 l 305 576 l 271 746 l 271 949 l 474 949 l 474 746 l 440 576 "},"g":{"x_min":0,"x_max":610.40625,"ha":678,"o":"m 610 576 l 271 576 l 271 373 l 406 373 l 406 271 q 339 203 406 203 l 271 203 q 203 271 203 203 l 203 678 q 271 746 203 746 l 339 746 q 406 678 406 746 l 406 644 l 610 644 l 610 678 q 339 949 610 949 l 271 949 q 0 678 0 949 l 0 271 q 271 0 0 0 l 339 0 q 610 271 610 0 l 610 576 "},"e":{"x_min":0,"x_max":610.40625,"ha":678,"o":"m 0 949 l 0 0 l 610 0 l 610 203 l 203 203 l 203 373 l 542 373 l 542 576 l 203 576 l 203 746 l 610 746 l 610 949 l 0 949 "},"J":{"x_min":0,"x_max":610.40625,"ha":678,"o":"m 406 949 l 610 949 l 610 271 q 339 0 610 0 l 271 0 q 0 271 0 0 l 0 339 l 203 339 l 203 271 q 271 203 203 203 l 339 203 q 406 271 406 203 l 406 949 "},"|":{"x_min":0,"x_max":203.46875,"ha":271,"o":"m 203 1152 l 203 -203 l 0 -203 l 0 1152 l 203 1152 "},"q":{"x_min":0,"x_max":610.40625,"ha":678,"o":"m 203 271 q 271 203 203 203 l 339 203 q 406 271 406 203 l 406 678 q 339 746 406 746 l 271 746 q 203 678 203 746 l 203 271 m 295 0 l 271 0 q 0 271 0 0 l 0 678 q 271 949 0 949 l 339 949 q 610 678 610 949 l 610 271 q 499 35 610 97 q 610 20 546 20 l 610 -156 q 295 0 381 -156 "},"b":{"x_min":0,"x_max":610.40625,"ha":678,"o":"m 562 519 q 610 339 610 453 l 610 271 q 339 0 610 0 l 0 0 l 0 949 l 325 949 q 596 678 596 949 q 562 519 596 581 m 203 746 l 203 610 l 325 610 q 393 678 393 610 q 325 746 393 746 l 203 746 m 203 406 l 203 203 l 339 203 q 406 271 406 203 l 406 339 q 339 406 406 406 l 203 406 "},"D":{"x_min":0,"x_max":610.40625,"ha":678,"o":"m 0 0 l 0 949 l 339 949 q 610 678 610 949 l 610 271 q 339 0 610 0 l 0 0 m 339 203 q 406 271 406 203 l 406 678 q 339 746 406 746 l 203 746 l 203 203 l 339 203 "},"ﬂ":{"x_min":0,"x_max":0,"ha":733},"z":{"x_min":0,"x_max":610.40625,"ha":678,"o":"m 361 746 l 0 746 l 0 949 l 610 949 l 610 746 l 248 203 l 610 203 l 610 0 l 0 0 l 0 203 l 361 746 "},"w":{"x_min":-33.90625,"x_max":1119.0625,"ha":1153,"o":"m 644 0 l 915 0 l 1119 949 l 915 949 l 779 316 l 644 949 l 440 949 l 305 316 l 169 949 l -33 949 l 169 0 l 440 0 l 542 474 l 644 0 "},"$":{"x_min":0,"x_max":610.40625,"ha":678,"o":"m 203 944 l 203 1051 l 406 1051 l 406 944 q 610 678 610 912 l 610 644 l 406 644 l 406 678 q 339 746 406 746 l 271 746 q 203 678 203 746 l 203 644 q 271 576 203 576 l 339 576 q 610 305 610 576 l 610 271 q 406 4 610 36 l 406 -101 l 203 -101 l 203 4 q 0 271 0 36 l 0 305 l 203 305 l 203 271 q 271 203 203 203 l 339 203 q 406 271 406 203 l 406 305 q 339 373 406 373 l 271 373 q 0 644 0 373 l 0 678 q 203 944 0 912 "},"\\":{"x_min":-225.84375,"x_max":429.3125,"ha":271,"o":"m 238 -197 l -225 1077 l -34 1146 l 429 -127 l 238 -197 "},"-":{"x_min":0,"x_max":474.75,"ha":543,"o":"m 0 373 l 474 373 l 474 576 l 0 576 l 0 373 "},"Q":{"x_min":0,"x_max":610.40625,"ha":678,"o":"m 203 271 q 271 203 203 203 l 339 203 q 406 271 406 203 l 406 678 q 339 746 406 746 l 271 746 q 203 678 203 746 l 203 271 m 295 0 l 271 0 q 0 271 0 0 l 0 678 q 271 949 0 949 l 339 949 q 610 678 610 949 l 610 271 q 499 35 610 97 q 610 20 546 20 l 610 -156 q 295 0 381 -156 "},"M":{"x_min":0,"x_max":813.875,"ha":882,"o":"m 330 135 l 205 452 l 205 0 l 0 0 l 0 949 l 223 949 l 407 505 l 590 949 l 813 949 l 813 0 l 608 0 l 608 452 l 480 135 l 330 135 "},"C":{"x_min":0,"x_max":610.40625,"ha":678,"o":"m 0 271 q 271 0 0 0 l 339 0 q 610 271 610 0 l 610 339 l 406 339 l 406 271 q 339 203 406 203 l 271 203 q 203 271 203 203 l 203 678 q 271 746 203 746 l 339 746 q 406 678 406 746 l 406 610 l 610 610 l 610 678 q 339 949 610 949 l 271 949 q 0 678 0 949 l 0 271 "},"[":{"x_min":0,"x_max":339.109375,"ha":407,"o":"m 339 0 l 339 -203 l 0 -203 l 0 1152 l 339 1152 l 339 949 l 203 949 l 203 0 l 339 0 "},"L":{"x_min":0,"x_max":610.40625,"ha":678,"o":"m 0 949 l 0 0 l 610 0 l 610 203 l 203 203 l 203 949 l 0 949 "},";":{"x_min":0,"x_max":203.46875,"ha":271,"o":"m 0 508 l 203 508 l 203 712 l 0 712 l 0 508 m 169 67 l 33 67 l 0 237 l 0 440 l 203 440 l 203 237 l 169 67 "},"!":{"x_min":0,"x_max":203.46875,"ha":271,"o":"m 0 271 l 0 949 l 203 949 l 203 271 l 0 271 m 203 203 l 203 0 l 0 0 l 0 203 l 203 203 "},"\u001d":{"x_min":0,"x_max":0,"ha":0}," ":{"x_min":0,"x_max":0,"ha":237},"ﬁ":{"x_min":0,"x_max":0,"ha":728},"{":{"x_min":0,"x_max":339.109375,"ha":407,"o":"m 339 0 l 339 -203 l 271 -203 q 0 67 0 -203 l 0 881 q 271 1152 0 1152 l 339 1152 l 339 949 l 271 949 q 203 881 203 949 l 203 67 q 271 0 203 0 l 339 0 "},"X":{"x_min":-34.59375,"x_max":644.984375,"ha":678,"o":"m 305 710 l 419 949 l 644 949 l 418 474 l 644 0 l 419 0 l 305 238 l 191 0 l -34 0 l 192 474 l -34 949 l 191 949 l 305 710 "},"P":{"x_min":0,"x_max":610.40625,"ha":678,"o":"m 203 746 l 203 542 l 339 542 q 406 610 406 542 l 406 678 q 339 746 406 746 l 203 746 m 203 339 l 203 0 l 0 0 l 0 949 l 339 949 q 610 678 610 949 l 610 610 q 339 339 610 339 l 203 339 "},"_":{"x_min":0,"x_max":610.40625,"ha":678,"o":"m 0 0 l 610 0 l 610 203 l 0 203 l 0 0 "},"+":{"x_min":0,"x_max":474.75,"ha":543,"o":"m 135 237 l 339 237 l 339 373 l 474 373 l 474 576 l 339 576 l 339 712 l 135 712 l 135 576 l 0 576 l 0 373 l 135 373 l 135 237 "},")":{"x_min":0,"x_max":339.109375,"ha":407,"o":"m 67 0 q 135 67 135 0 l 135 881 q 67 949 135 949 l 0 949 l 0 1152 l 67 1152 q 339 881 339 1152 l 339 67 q 67 -203 339 -203 l 0 -203 l 0 0 l 67 0 "},"'":{"x_min":0,"x_max":203.46875,"ha":271,"o":"m 169 576 l 33 576 l 0 746 l 0 949 l 203 949 l 203 746 l 169 576 "},"}":{"x_min":0,"x_max":339.109375,"ha":407,"o":"m 67 0 q 135 67 135 0 l 135 881 q 67 949 135 949 l 0 949 l 0 1152 l 67 1152 q 339 881 339 1152 l 339 67 q 67 -203 339 -203 l 0 -203 l 0 0 l 67 0 "},"T":{"x_min":0,"x_max":610.40625,"ha":678,"o":"m 0 949 l 610 949 l 610 746 l 406 746 l 406 0 l 203 0 l 203 746 l 0 746 l 0 949 "},"a":{"x_min":-33.90625,"x_max":644.3125,"ha":678,"o":"m 198 135 l 169 0 l -33 0 l 169 949 l 440 949 l 644 0 l 440 0 l 411 135 l 198 135 m 368 339 l 305 632 l 242 339 l 368 339 "},"=":{"x_min":0,"x_max":474.75,"ha":543,"o":"m 0 508 l 474 508 l 474 712 l 0 712 l 0 508 m 0 237 l 474 237 l 474 440 l 0 440 l 0 237 "},"N":{"x_min":0,"x_max":610.40625,"ha":678,"o":"m 221 949 l 406 491 l 406 949 l 610 949 l 610 0 l 386 0 l 203 452 l 203 0 l 0 0 l 0 949 l 221 949 "},"2":{"x_min":0,"x_max":610.40625,"ha":678,"o":"m 610 203 l 203 203 l 203 305 q 271 373 203 373 l 339 373 q 610 644 610 373 l 610 678 q 339 949 610 949 l 271 949 q 0 678 0 949 l 0 644 l 203 644 l 203 678 q 271 746 203 746 l 339 746 q 406 678 406 746 l 406 644 q 339 576 406 576 l 271 576 q 0 305 0 576 l 0 0 l 610 0 l 610 203 "},"j":{"x_min":0,"x_max":610.40625,"ha":678,"o":"m 406 949 l 610 949 l 610 271 q 339 0 610 0 l 271 0 q 0 271 0 0 l 0 339 l 203 339 l 203 271 q 271 203 203 203 l 339 203 q 406 271 406 203 l 406 949 "},"Z":{"x_min":0,"x_max":610.40625,"ha":678,"o":"m 361 746 l 0 746 l 0 949 l 610 949 l 610 746 l 248 203 l 610 203 l 610 0 l 0 0 l 0 203 l 361 746 "},"u":{"x_min":0,"x_max":610.40625,"ha":678,"o":"m 0 949 l 0 271 q 271 0 0 0 l 339 0 q 610 271 610 0 l 610 949 l 406 949 l 406 271 q 339 203 406 203 l 271 203 q 203 271 203 203 l 203 949 l 0 949 "},"1":{"x_min":0,"x_max":271.296875,"ha":339,"o":"m 271 949 l 271 0 l 67 0 l 67 746 l 0 746 l 0 949 l 271 949 "},"":{"x_min":0,"x_max":0,"ha":733},"k":{"x_min":0,"x_max":644.984375,"ha":678,"o":"m 203 373 l 203 0 l 0 0 l 0 949 l 203 949 l 203 576 l 240 576 l 305 710 l 419 949 l 644 949 l 418 474 l 644 0 l 419 0 l 305 238 l 240 373 l 203 373 "},"<":{"x_min":0,"x_max":339.109375,"ha":407,"o":"m 339 0 l 339 -203 l 0 -203 l 0 1152 l 339 1152 l 339 949 l 203 949 l 203 0 l 339 0 "},"t":{"x_min":0,"x_max":610.40625,"ha":678,"o":"m 0 949 l 610 949 l 610 746 l 406 746 l 406 0 l 203 0 l 203 746 l 0 746 l 0 949 "},"W":{"x_min":-33.90625,"x_max":1119.0625,"ha":1153,"o":"m 644 0 l 915 0 l 1119 949 l 915 949 l 779 316 l 644 949 l 440 949 l 305 316 l 169 949 l -33 949 l 169 0 l 440 0 l 542 474 l 644 0 "},"v":{"x_min":-33.90625,"x_max":644.3125,"ha":678,"o":"m 440 0 l 644 949 l 440 949 l 305 316 l 169 949 l -33 949 l 169 0 l 440 0 "},">":{"x_min":0,"x_max":339.109375,"ha":407,"o":"m 135 0 l 135 949 l 0 949 l 0 1152 l 339 1152 l 339 -203 l 0 -203 l 0 0 l 135 0 "},"s":{"x_min":0,"x_max":610.40625,"ha":678,"o":"m 0 271 q 271 0 0 0 l 339 0 q 610 271 610 0 l 610 305 q 339 576 610 576 l 271 576 q 203 644 203 576 l 203 678 q 271 746 203 746 l 339 746 q 406 678 406 746 l 406 644 l 610 644 l 610 678 q 339 949 610 949 l 271 949 q 0 678 0 949 l 0 644 q 271 373 0 373 l 339 373 q 406 305 406 373 l 406 271 q 339 203 406 203 l 271 203 q 203 271 203 203 l 203 305 l 0 305 l 0 271 "},"B":{"x_min":0,"x_max":610.40625,"ha":678,"o":"m 562 519 q 610 339 610 453 l 610 271 q 339 0 610 0 l 0 0 l 0 949 l 325 949 q 596 678 596 949 q 562 519 596 581 m 203 746 l 203 610 l 325 610 q 393 678 393 610 q 325 746 393 746 l 203 746 m 203 406 l 203 203 l 339 203 q 406 271 406 203 l 406 339 q 339 406 406 406 l 203 406 "},"?":{"x_min":0,"x_max":610.40625,"ha":678,"o":"m 237 271 l 237 305 q 305 373 237 373 l 339 373 q 610 644 610 373 l 610 678 q 339 949 610 949 l 271 949 q 0 678 0 949 l 0 644 l 203 644 l 203 678 q 271 746 203 746 l 339 746 q 406 678 406 746 l 406 644 q 339 576 406 576 l 305 576 q 33 305 33 576 l 33 271 l 237 271 m 237 203 l 237 0 l 33 0 l 33 203 l 237 203 "},"H":{"x_min":0,"x_max":610.40625,"ha":678,"o":"m 0 949 l 0 0 l 203 0 l 203 373 l 406 373 l 406 0 l 610 0 l 610 949 l 406 949 l 406 576 l 203 576 l 203 949 l 0 949 "},"c":{"x_min":0,"x_max":610.40625,"ha":678,"o":"m 0 271 q 271 0 0 0 l 339 0 q 610 271 610 0 l 610 339 l 406 339 l 406 271 q 339 203 406 203 l 271 203 q 203 271 203 203 l 203 678 q 271 746 203 746 l 339 746 q 406 678 406 746 l 406 610 l 610 610 l 610 678 q 339 949 610 949 l 271 949 q 0 678 0 949 l 0 271 "},"&":{"x_min":0,"x_max":712.140625,"ha":780,"o":"m 271 373 q 203 305 203 373 l 203 271 q 271 203 203 203 l 339 203 q 406 271 406 203 l 406 373 l 271 373 m 508 40 q 339 0 444 0 l 271 0 q 0 271 0 0 l 0 305 q 40 474 0 410 q 0 644 0 539 l 0 678 q 271 949 0 949 l 339 949 q 610 678 610 949 l 610 644 l 406 644 l 406 678 q 339 746 406 746 l 271 746 q 203 678 203 746 l 203 644 q 271 576 203 576 l 712 576 l 712 373 l 610 373 l 610 271 q 678 203 610 203 l 712 203 l 712 0 l 678 0 q 508 40 573 0 "},"I":{"x_min":0,"x_max":203.46875,"ha":271,"o":"m 203 949 l 203 0 l 0 0 l 0 949 l 203 949 "},"G":{"x_min":0,"x_max":610.40625,"ha":678,"o":"m 610 576 l 271 576 l 271 373 l 406 373 l 406 271 q 339 203 406 203 l 271 203 q 203 271 203 203 l 203 678 q 271 746 203 746 l 339 746 q 406 678 406 746 l 406 644 l 610 644 l 610 678 q 339 949 610 949 l 271 949 q 0 678 0 949 l 0 271 q 271 0 0 0 l 339 0 q 610 271 610 0 l 610 576 "},"(":{"x_min":0,"x_max":339.109375,"ha":407,"o":"m 339 0 l 339 -203 l 271 -203 q 0 67 0 -203 l 0 881 q 271 1152 0 1152 l 339 1152 l 339 949 l 271 949 q 203 881 203 949 l 203 67 q 271 0 203 0 l 339 0 "},"`":{"x_min":0,"x_max":203.46875,"ha":271,"o":"m 169 576 l 33 576 l 0 746 l 0 949 l 203 949 l 203 746 l 169 576 "},"U":{"x_min":0,"x_max":610.40625,"ha":678,"o":"m 0 949 l 0 271 q 271 0 0 0 l 339 0 q 610 271 610 0 l 610 949 l 406 949 l 406 271 q 339 203 406 203 l 271 203 q 203 271 203 203 l 203 949 l 0 949 "},"F":{"x_min":0,"x_max":610.40625,"ha":678,"o":"m 0 949 l 0 0 l 203 0 l 203 373 l 542 373 l 542 576 l 203 576 l 203 746 l 610 746 l 610 949 l 0 949 "},"­":{"x_min":0,"x_max":474.75,"ha":543,"o":"m 0 373 l 474 373 l 474 576 l 0 576 l 0 373 "},"r":{"x_min":0,"x_max":610.40625,"ha":678,"o":"m 203 339 l 203 0 l 0 0 l 0 949 l 339 949 q 610 678 610 949 l 610 610 q 569 440 610 505 q 610 271 610 376 l 610 0 l 406 0 l 406 271 q 339 339 406 339 l 203 339 m 339 542 q 406 610 406 542 l 406 678 q 339 746 406 746 l 203 746 l 203 542 l 339 542 "},":":{"x_min":0,"x_max":203.46875,"ha":271,"o":"m 0 508 l 203 508 l 203 712 l 0 712 l 0 508 m 0 237 l 203 237 l 203 440 l 0 440 l 0 237 "},"x":{"x_min":-34.59375,"x_max":644.984375,"ha":678,"o":"m 305 710 l 419 949 l 644 949 l 418 474 l 644 0 l 419 0 l 305 238 l 191 0 l -34 0 l 192 474 l -34 949 l 191 949 l 305 710 "},"V":{"x_min":-33.90625,"x_max":644.3125,"ha":678,"o":"m 440 0 l 644 949 l 440 949 l 305 316 l 169 949 l -33 949 l 169 0 l 440 0 "}," ":{"x_min":0,"x_max":0,"ha":237},"h":{"x_min":0,"x_max":610.40625,"ha":678,"o":"m 0 949 l 0 0 l 203 0 l 203 373 l 406 373 l 406 0 l 610 0 l 610 949 l 406 949 l 406 576 l 203 576 l 203 949 l 0 949 "},"0":{"x_min":0,"x_max":610.40625,"ha":678,"o":"m 0 678 q 271 949 0 949 l 339 949 q 610 678 610 949 l 610 271 q 339 0 610 0 l 271 0 q 0 271 0 0 l 0 678 m 203 271 q 271 203 203 203 l 339 203 q 406 271 406 203 l 406 678 q 339 746 406 746 l 271 746 q 203 678 203 746 l 203 271 "},".":{"x_min":0,"x_max":203.46875,"ha":271,"o":"m 0 0 l 0 203 l 203 203 l 203 0 l 0 0 "},"f":{"x_min":0,"x_max":610.40625,"ha":678,"o":"m 0 949 l 0 0 l 203 0 l 203 373 l 542 373 l 542 576 l 203 576 l 203 746 l 610 746 l 610 949 l 0 949 "},";":{"x_min":0,"x_max":203.46875,"ha":271,"o":"m 0 508 l 203 508 l 203 712 l 0 712 l 0 508 m 169 67 l 33 67 l 0 237 l 0 440 l 203 440 l 203 237 l 169 67 "},"i":{"x_min":0,"x_max":203.46875,"ha":271,"o":"m 203 949 l 203 0 l 0 0 l 0 949 l 203 949 "},"A":{"x_min":-33.90625,"x_max":644.3125,"ha":678,"o":"m 198 135 l 169 0 l -33 0 l 169 949 l 440 949 l 644 0 l 440 0 l 411 135 l 198 135 m 368 339 l 305 632 l 242 339 l 368 339 "},"6":{"x_min":0,"x_max":610.40625,"ha":678,"o":"m 0 271 l 0 678 q 271 949 0 949 l 339 949 q 610 678 610 949 l 610 644 l 406 644 l 406 678 q 339 746 406 746 l 271 746 q 203 678 203 746 l 203 576 l 339 576 q 610 305 610 576 l 610 271 q 339 0 610 0 l 271 0 q 0 271 0 0 m 203 271 q 271 203 203 203 l 339 203 q 406 271 406 203 l 406 305 q 339 373 406 373 l 203 373 l 203 271 "},"n":{"x_min":0,"x_max":610.40625,"ha":678,"o":"m 221 949 l 406 491 l 406 949 l 610 949 l 610 0 l 386 0 l 203 452 l 203 0 l 0 0 l 0 949 l 221 949 "},"O":{"x_min":0,"x_max":610.40625,"ha":678,"o":"m 0 678 q 271 949 0 949 l 339 949 q 610 678 610 949 l 610 271 q 339 0 610 0 l 271 0 q 0 271 0 0 l 0 678 m 203 271 q 271 203 203 203 l 339 203 q 406 271 406 203 l 406 678 q 339 746 406 746 l 271 746 q 203 678 203 746 l 203 271 "},"3":{"x_min":0,"x_max":610.40625,"ha":678,"o":"m 203 576 l 203 373 l 339 373 q 406 305 406 373 l 406 271 q 339 203 406 203 l 271 203 q 203 271 203 203 l 203 305 l 0 305 l 0 271 q 271 0 0 0 l 339 0 q 610 271 610 0 l 610 305 q 569 474 610 410 q 610 644 610 539 l 610 678 q 339 949 610 949 l 271 949 q 0 678 0 949 l 0 644 l 203 644 l 203 678 q 271 746 203 746 l 339 746 q 406 678 406 746 l 406 644 q 339 576 406 576 l 203 576 "},"]":{"x_min":0,"x_max":339.109375,"ha":407,"o":"m 135 0 l 135 949 l 0 949 l 0 1152 l 339 1152 l 339 -203 l 0 -203 l 0 0 l 135 0 "},"m":{"x_min":0,"x_max":813.875,"ha":882,"o":"m 330 135 l 205 452 l 205 0 l 0 0 l 0 949 l 223 949 l 407 505 l 590 949 l 813 949 l 813 0 l 608 0 l 608 452 l 480 135 l 330 135 "},"9":{"x_min":0,"x_max":610.40625,"ha":678,"o":"m 610 678 l 610 271 q 339 0 610 0 l 271 0 q 0 271 0 0 l 0 305 l 203 305 l 203 271 q 271 203 203 203 l 339 203 q 406 271 406 203 l 406 373 l 271 373 q 0 644 0 373 l 0 678 q 271 949 0 949 l 339 949 q 610 678 610 949 m 406 678 q 339 746 406 746 l 271 746 q 203 678 203 746 l 203 644 q 271 576 203 576 l 406 576 l 406 678 "},"l":{"x_min":0,"x_max":610.40625,"ha":678,"o":"m 0 949 l 0 0 l 610 0 l 610 203 l 203 203 l 203 949 l 0 949 "},"8":{"x_min":0,"x_max":610.40625,"ha":678,"o":"m 284 949 q 13 678 13 949 q 48 519 13 581 q 0 339 0 453 l 0 271 q 271 0 0 0 l 339 0 q 610 271 610 0 l 610 339 q 562 519 610 453 q 596 678 596 581 q 325 949 596 949 l 284 949 m 284 610 q 217 678 217 610 q 284 746 217 746 l 325 746 q 393 678 393 746 q 325 610 393 610 l 284 610 m 271 203 q 203 271 203 203 l 203 339 q 271 406 203 406 l 339 406 q 406 339 406 406 l 406 271 q 339 203 406 203 l 271 203 "},"":{"x_min":0,"x_max":0,"ha":728},"p":{"x_min":0,"x_max":610.40625,"ha":678,"o":"m 203 746 l 203 542 l 339 542 q 406 610 406 542 l 406 678 q 339 746 406 746 l 203 746 m 203 339 l 203 0 l 0 0 l 0 949 l 339 949 q 610 678 610 949 l 610 610 q 339 339 610 339 l 203 339 "},"4":{"x_min":0,"x_max":610.40625,"ha":678,"o":"m 0 949 l 0 373 l 406 373 l 406 0 l 610 0 l 610 949 l 406 949 l 406 576 l 203 576 l 203 949 l 0 949 "},"R":{"x_min":0,"x_max":610.40625,"ha":678,"o":"m 203 339 l 203 0 l 0 0 l 0 949 l 339 949 q 610 678 610 949 l 610 610 q 569 440 610 505 q 610 271 610 376 l 610 0 l 406 0 l 406 271 q 339 339 406 339 l 203 339 m 339 542 q 406 610 406 542 l 406 678 q 339 746 406 746 l 203 746 l 203 542 l 339 542 "},"o":{"x_min":0,"x_max":610.40625,"ha":678,"o":"m 0 678 q 271 949 0 949 l 339 949 q 610 678 610 949 l 610 271 q 339 0 610 0 l 271 0 q 0 271 0 0 l 0 678 m 203 271 q 271 203 203 203 l 339 203 q 406 271 406 203 l 406 678 q 339 746 406 746 l 271 746 q 203 678 203 746 l 203 271 "},"5":{"x_min":0,"x_max":610.40625,"ha":678,"o":"m 610 949 l 0 949 l 0 644 q 271 373 0 373 l 339 373 q 406 305 406 373 l 406 271 q 339 203 406 203 l 271 203 q 203 271 203 203 l 203 305 l 0 305 l 0 271 q 271 0 0 0 l 339 0 q 610 271 610 0 l 610 305 q 339 576 610 576 l 271 576 q 203 644 203 576 l 203 746 l 610 746 l 610 949 "}}}
